<svg fill="none" xmlns="http://www.w3.org/2000/svg">
	<symbol viewBox="0 0 24 24" fill="none" id="arrow-right">
		<path fill-rule="evenodd" clip-rule="evenodd" d="M13.4697 5.46967C13.7626 5.17678 14.2374 5.17678 14.5303 5.46967L20.5303 11.4697C20.8232 11.7626 20.8232 12.2374 20.5303 12.5303L14.5303 18.5303C14.2374 18.8232 13.7626 18.8232 13.4697 18.5303C13.1768 18.2374 13.1768 17.7626 13.4697 17.4697L18.1893 12.75H4C3.58579 12.75 3.25 12.4142 3.25 12C3.25 11.5858 3.58579 11.25 4 11.25H18.1893L13.4697 6.53033C13.1768 6.23744 13.1768 5.76256 13.4697 5.46967Z" fill="currentColor"/>
	</symbol>
	<symbol viewBox="0 0 24 24" fill="none" id="close">
		<path d="M20.7457 3.32851C20.3552 2.93798 19.722 2.93798 19.3315 3.32851L12.0371 10.6229L4.74275 3.32851C4.35223 2.93798 3.71906 2.93798 3.32854 3.32851C2.93801 3.71903 2.93801 4.3522 3.32854 4.74272L10.6229 12.0371L3.32856 19.3314C2.93803 19.722 2.93803 20.3551 3.32856 20.7457C3.71908 21.1362 4.35225 21.1362 4.74277 20.7457L12.0371 13.4513L19.3315 20.7457C19.722 21.1362 20.3552 21.1362 20.7457 20.7457C21.1362 20.3551 21.1362 19.722 20.7457 19.3315L13.4513 12.0371L20.7457 4.74272C21.1362 4.3522 21.1362 3.71903 20.7457 3.32851Z" fill="currentColor"/>
	</symbol>
	<symbol viewBox="0 0 15 15" fill="none" id="arrow-down">
		<path fill="currentColor" fill-rule="evenodd" d="M14.707 1.474L7.5 9.234L.293 1.475l.733-.68L7.5 7.764L13.974.793l.733.68Zm-13.68 4.82l6.473 6.97l6.474-6.972l.733.68L7.5 14.736L.293 6.974l.733-.68Z" clip-rule="evenodd"/>
	</symbol>
	<symbol viewBox="0 0 304 384" fill="none" id="quote">
		<path fill="currentColor" d="m21 299l43-86H0V85h128v128l-43 86H21zm171 0l43-86h-64V85h128v128l-43 86h-64z"/>
	</symbol>
	<symbol viewBox="0 0 20 20" fill="none" id="logo">
		<path fill="currentColor" d="M10 18a8 8 0 1 1 8-8a8 8 0 0 1-8 8zm0-18A9.94 9.94 0 0 0 0 10a9.94 9.94 0 0 0 10 10a9.94 9.94 0 0 0 10-10A9.94 9.94 0 0 0 10 0z"/>
		<path fill="currentColor" d="M13.49 11.67c-1 0-1.43-.57-1.43-1.71s.43-1.71 1.43-1.71c.57 0 .86.29 1.14.86l1.29-.71A2.8 2.8 0 0 0 13.2 7a2.91 2.91 0 0 0-2.14.86A2.7 2.7 0 0 0 10.2 10a3 3 0 0 0 .86 2.29a2.91 2.91 0 0 0 2.14.86a3.24 3.24 0 0 0 2.71-1.57L14.63 11a1.46 1.46 0 0 1-1.14.71zm-6 0c-1 0-1.43-.57-1.43-1.71s.43-1.71 1.43-1.71c.57 0 .86.29 1.14.86l1.29-.71A2.8 2.8 0 0 0 7.2 7a2.91 2.91 0 0 0-2.14.86A2.7 2.7 0 0 0 4.2 10a3 3 0 0 0 .86 2.29a2.91 2.91 0 0 0 2.14.86a3.24 3.24 0 0 0 2.71-1.57L8.63 11a1.46 1.46 0 0 1-1.14.71z"/>
	</symbol>
	<symbol viewBox="0 0 24 24" fill="none" id="messages">
		<path fill="currentColor" fill-rule="evenodd" d="M22 12c0 5.523-4.477 10-10 10c-1.6 0-3.112-.376-4.452-1.044a1.634 1.634 0 0 0-1.149-.133l-2.226.596a1.3 1.3 0 0 1-1.591-1.592l.595-2.226a1.633 1.633 0 0 0-.134-1.148A9.96 9.96 0 0 1 2 12C2 6.477 6.477 2 12 2s10 4.477 10 10ZM12 7.25a.75.75 0 0 1 .75.75v8a.75.75 0 0 1-1.5 0V8a.75.75 0 0 1 .75-.75ZM8.75 10a.75.75 0 0 0-1.5 0v4a.75.75 0 0 0 1.5 0v-4ZM16 9.25a.75.75 0 0 1 .75.75v4a.75.75 0 0 1-1.5 0v-4a.75.75 0 0 1 .75-.75Z" clip-rule="evenodd"/>
	</symbol>
</svg>